<?xml version="1.0" encoding="utf-8"?>
<!-- Generator: Adobe Illustrator 25.2.1, SVG Export Plug-In . SVG Version: 6.00 Build 0)  -->
<svg version="1.1" id="b8eef085-bbb0-4c81-9a53-f8aa424b48dc"
	 xmlns="http://www.w3.org/2000/svg" xmlns:xlink="http://www.w3.org/1999/xlink" x="0px" y="0px" viewBox="0 0 1063.1 672.7"
	 style="enable-background:new 0 0 1063.1 672.7;" xml:space="preserve">
<style type="text/css">
	.st0{fill:#3F3D56;}
	.st1{fill:#F9E754;}
	.st2{fill:#F2F2F2;}
	.st3{opacity:3.000000e-02;enable-background:new    ;}
</style>
<path class="st0" d="M194.5,360.1L943.3,239c30.4-5.1,55.3,6.2,70.1,15.7c5,3.2,9.8,6.8,14.1,10.9l0.5,0.5
	c6.6,3.3,12.9,7.1,18.8,11.5c38.5,29.3-3,51-3,51c-285.1,117.3-665.5,85.8-665.5,85.8s-74-2.3-128-8.8c-19.9-2.4-37-5.3-46.8-8.9
	C167.1,383.2,194.5,360.1,194.5,360.1z"/>
<path class="st0" d="M194.5,360.1l-67.6-117.6l69.1-12l156.8,111.2C350.9,361.4,194.5,360.1,194.5,360.1z"/>
<polygon class="st0" points="569.9,309.9 525.8,260.6 384.7,197.1 435.1,186.6 747.3,274.2 "/>
<path class="st1" d="M691.2,354.4c293.9-34.7,355.5-76.3,355.5-76.3l0.1-0.5c38.5,29.3-3,51-3,51
	c-285.1,117.3-665.5,85.8-665.5,85.8s-74-2.3-128-8.8L691.2,354.4z"/>
<path class="st0" d="M209.3,393.5l-83.5,62.8l35.1,3.9l139.6-57C310.3,372,209.3,393.5,209.3,393.5z"/>
<path class="st1" d="M984.5,269.8c7.6,0.4,21.2-9.1,28.8-15c5,3.2,9.8,6.8,14.1,10.9c-9.5,7.5-24.8,18.7-31.4,18.6
	C986,284,973.5,269.3,984.5,269.8z"/>
<path class="st0" d="M559.4,441c0,0-0.3-0.5-0.7-1.5c-1.8-4.1-6.3-15.4-6.6-25.1c-0.2-5.2,0.9-9.8,4.2-12.6
	c0,0,173.9-49.7,216.6-13.7l-22.7,15.3L703.4,435l-252,169.9l-89.6-4.7L559.4,441z"/>
<path class="st2" d="M653,528.8c0,15.1,8.8,27.4,19.6,27.4c2.4,0,4.7-0.6,6.8-1.7c7.4-3.5,16-3.7,23.5-0.5c6.4,2.9,13.7,2.9,20.1,0
	c7.6-3.3,16.2-3.2,23.7,0.5c2.1,1.1,4.4,1.7,6.8,1.7c10.8,0,19.6-12.2,19.6-27.4s-8.8-27.4-19.6-27.4h-0.5c-6.5,0.2-12.6-3.1-16-8.6
	c-5.6-9.1-14.4-14.9-24.1-14.9c-8.2,0-15.6,4-21.1,10.7l5.9,10.8l-9.4-6c-2.3,3.2-5.5,5.7-9.2,7l2.2,4.1l-5.3-3.3
	c-1.1,0.2-2.1,0.3-3.2,0.2h-0.2c-3.4,0-6.7,1.2-9.4,3.3l9.4,17.1l-15.5-9.8C654.3,517.3,652.9,523,653,528.8z"/>
<path class="st3" d="M703.7,537.1h0.2c6.5,0.1,12.5-3.3,16-8.8c5.6-9,14.3-14.7,24-14.7s18.5,5.8,24.1,14.9c1.2,2,2.9,3.8,4.8,5.2
	c-1.7,12.8-9.6,22.4-19.2,22.4c-2.4,0-4.7-0.6-6.8-1.7c-7.4-3.6-16.1-3.8-23.7-0.5c-6.4,2.9-13.7,2.9-20.1,0
	c-5.3-2.3-11.1-2.9-16.8-1.8C689.5,543.2,696.1,537.1,703.7,537.1z"/>
<path class="st2" d="M214,515.8c0,15.1,8.8,27.4,19.6,27.4c2.4,0,4.7-0.6,6.8-1.7c7.4-3.5,16-3.7,23.5-0.5c6.4,2.9,13.7,2.9,20.1,0
	c7.6-3.3,16.2-3.2,23.7,0.5c2.1,1.1,4.4,1.7,6.8,1.7c10.8,0,19.6-12.2,19.6-27.4s-8.8-27.4-19.6-27.4h-0.5c-6.5,0.2-12.6-3.1-16-8.6
	c-5.6-9.1-14.4-14.9-24.1-14.9c-8.2,0-15.6,4-21.1,10.7l5.9,10.8l-9.4-6c-2.3,3.2-5.5,5.7-9.2,7l2.2,4.1l-5.3-3.3
	c-1.1,0.2-2.1,0.3-3.2,0.2h-0.2c-3.4,0-6.7,1.2-9.4,3.3l9.4,17.1l-15.5-9.8C215.3,504.3,213.9,510,214,515.8z"/>
<path class="st3" d="M264.7,524.1h0.2c6.5,0.1,12.6-3.2,16-8.8c5.6-9,14.2-14.7,24-14.7s18.5,5.8,24.1,14.9c1.2,2,2.9,3.8,4.8,5.2
	c-1.7,12.8-9.7,22.4-19.2,22.4c-2.4,0-4.7-0.6-6.8-1.7c-7.4-3.6-16.1-3.8-23.7-0.5c-6.4,2.9-13.7,2.9-20.1,0
	c-5.3-2.3-11.1-2.9-16.8-1.8C250.5,530.2,257.1,524.1,264.7,524.1z"/>
<path class="st2" d="M214,187.9c0,15.1,8.8,27.4,19.6,27.4c2.4,0,4.7-0.6,6.8-1.7c7.4-3.5,16-3.7,23.5-0.5c6.4,2.8,13.7,2.8,20.1,0
	c7.6-3.3,16.2-3.2,23.7,0.5c2.1,1.1,4.4,1.7,6.8,1.7c10.8,0,19.6-12.2,19.6-27.4s-8.8-27.4-19.6-27.4h-0.5c-6.5,0.2-12.6-3.1-16-8.6
	c-5.6-9.1-14.4-14.9-24.1-14.9c-8.2,0-15.6,4.1-21.1,10.7l5.9,10.8l-9.4-6c-2.3,3.2-5.5,5.7-9.2,7l2.2,4.1l-5.3-3.3
	c-1.1,0.2-2.1,0.3-3.2,0.2h-0.2c-3.4,0-6.7,1.2-9.4,3.4l9.4,17.1l-15.5-9.8C215.3,176.3,213.9,182,214,187.9z"/>
<path class="st3" d="M264.7,196.1h0.2c6.5,0.1,12.6-3.2,16-8.8c5.6-9,14.2-14.7,24-14.7s18.5,5.8,24.1,14.9c1.2,2,2.9,3.8,4.8,5.2
	c-1.7,12.8-9.7,22.4-19.2,22.4c-2.4,0-4.7-0.6-6.8-1.7c-7.4-3.6-16.1-3.8-23.7-0.5c-6.4,2.9-13.7,2.9-20.1,0
	c-5.3-2.3-11.1-2.9-16.8-1.8C250.5,202.2,257.1,196.1,264.7,196.1z"/>
<path class="st2" d="M858,144.1c0,7.5,4.4,13.6,9.8,13.6c1.2,0,2.3-0.3,3.4-0.8c3.7-1.8,8-1.9,11.7-0.2c3.2,1.4,6.8,1.4,10,0
	c3.8-1.7,8.1-1.6,11.8,0.2c1,0.6,2.2,0.8,3.4,0.9c5.4,0,9.8-6.1,9.8-13.6s-4.4-13.7-9.8-13.7h-0.3c-3.2,0.1-6.3-1.5-8-4.3
	c-2.8-4.5-7.1-7.4-12-7.4c-4.1,0.1-8,2.1-10.5,5.3l3,5.4l-4.7-3c-1.1,1.6-2.7,2.8-4.6,3.5l1.1,2l-2.6-1.7c-0.5,0.1-1.1,0.1-1.6,0.1
	h-0.1c-1.7,0-3.4,0.6-4.7,1.7l4.7,8.5l-7.8-4.9C858.6,138.3,857.9,141.2,858,144.1z"/>
<path class="st3" d="M883.3,148.2h0.1c3.3,0.1,6.3-1.6,8-4.4c2.8-4.5,7.2-7.3,12-7.3c4.9,0,9.2,2.9,12,7.4c0.6,1,1.4,1.9,2.4,2.6
	c-0.8,6.4-4.8,11.2-9.6,11.2c-1.2,0-2.3-0.3-3.4-0.9c-3.7-1.8-8-1.9-11.8-0.2c-1.6,0.7-3.3,1.1-5,1.1c-1.7,0-3.4-0.4-5-1.1
	c-2.6-1.1-5.6-1.4-8.4-0.9C876.2,151.3,879.5,148.2,883.3,148.2z"/>
<path class="st2" d="M168,633.1c0,7.5,4.4,13.7,9.8,13.7c1.2,0,2.3-0.3,3.4-0.8c3.7-1.8,8-1.9,11.7-0.2c3.2,1.4,6.8,1.4,10,0
	c3.8-1.7,8.1-1.6,11.8,0.2c1,0.6,2.2,0.8,3.4,0.8c5.4,0,9.8-6.1,9.8-13.7s-4.4-13.7-9.8-13.7h-0.3c-3.2,0.1-6.3-1.5-8-4.3
	c-2.8-4.5-7.1-7.4-12-7.4c-4.1,0.1-8,2.1-10.5,5.3l3,5.4l-4.7-3c-1.1,1.6-2.7,2.8-4.6,3.5l1.1,2l-2.6-1.7c-0.5,0.1-1.1,0.1-1.6,0.1
	h-0.1c-1.7,0-3.4,0.6-4.7,1.7l4.7,8.5l-7.8-4.9C168.6,627.3,167.9,630.2,168,633.1z"/>
<path class="st3" d="M193.3,637.2h0.1c3.3,0.1,6.3-1.6,8-4.4c2.8-4.5,7.2-7.3,12-7.3s9.2,2.9,12,7.4c0.6,1,1.4,1.9,2.4,2.6
	c-0.8,6.4-4.8,11.2-9.6,11.2c-1.2,0-2.3-0.3-3.4-0.8c-3.7-1.8-8-1.9-11.8-0.2c-1.6,0.7-3.3,1.1-5,1.1c-1.7,0-3.4-0.4-5-1.1
	c-2.6-1.1-5.6-1.4-8.4-0.9C186.2,640.3,189.5,637.2,193.3,637.2z"/>
<path class="st2" d="M888,659.1c0,7.5,4.4,13.7,9.8,13.7c1.2,0,2.3-0.3,3.4-0.8c3.7-1.8,8-1.9,11.7-0.2c3.2,1.4,6.8,1.4,10,0
	c3.8-1.7,8.1-1.6,11.8,0.2c1,0.6,2.2,0.8,3.4,0.8c5.4,0,9.8-6.1,9.8-13.7s-4.4-13.7-9.8-13.7h-0.3c-3.2,0.1-6.3-1.5-8-4.3
	c-2.8-4.5-7.1-7.4-12-7.4c-4.1,0.1-8,2.1-10.5,5.3l3,5.4l-4.7-3c-1.1,1.6-2.7,2.8-4.6,3.5l1.1,2l-2.6-1.7c-0.5,0.1-1.1,0.1-1.6,0.1
	h-0.1c-1.7,0-3.4,0.6-4.7,1.7l4.7,8.5l-7.8-4.9C888.6,653.3,887.9,656.2,888,659.1z"/>
<path class="st3" d="M913.3,663.2h0.1c3.3,0.1,6.3-1.6,8-4.4c2.8-4.5,7.2-7.3,12-7.3c4.9,0,9.2,2.9,12,7.4c0.6,1,1.4,1.9,2.4,2.6
	c-0.8,6.4-4.8,11.2-9.6,11.2c-1.2,0-2.3-0.3-3.4-0.8c-3.7-1.8-8-1.9-11.8-0.2c-1.6,0.7-3.3,1.1-5,1.1c-1.7,0-3.4-0.4-5-1.1
	c-2.6-1.1-5.6-1.4-8.4-0.9C906.2,666.3,909.5,663.2,913.3,663.2z"/>
<path class="st2" d="M528,50.9c0,15.1,8.8,27.4,19.6,27.4c2.4,0,4.7-0.6,6.8-1.7c7.4-3.5,16-3.7,23.5-0.4c6.4,2.8,13.7,2.8,20.1-0.1
	c7.6-3.3,16.2-3.2,23.7,0.5c2.1,1.1,4.4,1.7,6.8,1.7c10.8,0,19.6-12.2,19.6-27.4s-8.8-27.4-19.6-27.4h-0.5c-6.5,0.2-12.6-3.1-16-8.6
	C606.2,5.8,597.5,0,587.7,0c-8.2,0-15.6,4-21.1,10.7l5.9,10.8l-9.4-6c-2.3,3.2-5.5,5.7-9.2,7l2.2,4.1l-5.3-3.3
	c-1.1,0.2-2.1,0.3-3.2,0.2h-0.2c-3.4,0-6.7,1.2-9.4,3.4l9.4,17.1L532,34.1C529.3,39.3,527.9,45,528,50.9z"/>
<path class="st3" d="M578.7,59.1h0.2c6.5,0.1,12.6-3.2,16-8.8c5.6-9,14.2-14.7,24-14.7c9.8,0,18.5,5.8,24.1,14.9
	c1.2,2,2.9,3.8,4.8,5.2c-1.7,12.8-9.7,22.4-19.2,22.4c-2.4,0-4.7-0.6-6.8-1.7c-7.4-3.6-16.1-3.8-23.7-0.5c-6.4,2.9-13.7,2.9-20.1,0
	c-5.3-2.3-11.1-2.9-16.8-1.8C564.5,65.2,571.1,59.1,578.7,59.1z"/>
<path class="st2" d="M0,214.1c0,7.5,4.4,13.6,9.8,13.6c1.2,0,2.3-0.3,3.4-0.8c3.7-1.8,8-1.9,11.7-0.2c3.2,1.4,6.8,1.4,10,0
	c3.8-1.7,8.1-1.6,11.8,0.2c1,0.6,2.2,0.8,3.4,0.9c5.4,0,9.8-6.1,9.8-13.6s-4.4-13.7-9.8-13.7h-0.3c-3.2,0.1-6.3-1.5-8-4.3
	c-2.8-4.5-7.1-7.4-12-7.4c-4.1,0.1-8,2.1-10.5,5.3l3,5.4l-4.7-3c-1.1,1.6-2.7,2.8-4.6,3.5l1.1,2l-2.6-1.7c-0.5,0.1-1.1,0.1-1.6,0.1
	H9.7c-1.7,0-3.4,0.6-4.7,1.7l4.7,8.5L2,205.7C0.6,208.3-0.1,211.2,0,214.1z"/>
<path class="st3" d="M25.3,218.2h0.1c3.2,0,6.2-1.6,7.9-4.4c2.8-4.5,7.2-7.3,12-7.3s9.2,2.9,12,7.4c0.6,1,1.4,1.9,2.4,2.6
	c-0.8,6.4-4.8,11.2-9.6,11.2c-1.2,0-2.3-0.3-3.4-0.9c-3.7-1.8-8-1.9-11.8-0.2c-1.6,0.7-3.3,1.1-5,1.1c-1.7,0-3.4-0.4-5-1.1
	c-2.6-1.1-5.6-1.4-8.4-0.9C18.2,221.3,21.5,218.2,25.3,218.2z"/>
</svg>
