<?xml version="1.0" encoding="utf-8"?>
<!-- Generator: Adobe Illustrator 25.2.1, SVG Export Plug-In . SVG Version: 6.00 Build 0)  -->
<svg version="1.1" id="Layer_1" xmlns="http://www.w3.org/2000/svg" xmlns:xlink="http://www.w3.org/1999/xlink" x="0px" y="0px"
	 viewBox="0 0 648 648" style="enable-background:new 0 0 648 648;" xml:space="preserve">
<style type="text/css">
	.st0{fill:#E2E2E2;}
	.st1{opacity:0.1;enable-background:new    ;}
	.st2{fill:#FFE478;stroke:#535461;stroke-miterlimit:10;}
	.st3{fill:#FFE478;stroke:#000000;stroke-width:0.5;stroke-miterlimit:10;}
	.st4{fill:#FFE478;stroke:#000000;stroke-width:0.25;stroke-miterlimit:10;}
	.st5{fill:none;stroke:#26272D;stroke-width:2;stroke-miterlimit:10;}
	.st6{fill:#F9E754;stroke:#000000;stroke-width:0.25;stroke-miterlimit:10;}
	.st7{fill:#FCDE4C;stroke:#000000;stroke-width:0.25;stroke-miterlimit:10;}
	.st8{fill:#F9E754;}
	.st9{fill:#40414D;}
	.st10{fill:#DFE6F5;}
	.st11{fill:#FFD77C;stroke:#FFAB50;stroke-miterlimit:10;}
	.st12{fill:#F6C6CD;}
	.st13{fill:url(#SVGID_1_);}
	.st14{fill:#B8616E;}
	.st15{opacity:5.000000e-02;enable-background:new    ;}
	.st16{fill:#F8BDC5;}
	.st17{fill:#758AC8;}
	.st18{fill:#5E52AD;}
	.st19{fill:#916168;}
	.st20{opacity:0.1;fill:#FFFFFF;enable-background:new    ;}
	.st21{fill:url(#SVGID_2_);}
	.st22{fill:#594C76;}
	.st23{fill:#8B9CD1;}
	.st24{fill:#EB6475;}
	.st25{opacity:0.1;}
	.st26{fill:#FFFFFF;}
	.st27{fill:#FFD77C;stroke:#FFAB50;stroke-width:0.25;stroke-miterlimit:10;}
</style>
<g id="d6af144a-e925-4ddf-847c-b38e3205da29">
	<circle class="st0" cx="331" cy="332.2" r="274"/>
	<ellipse class="st1" cx="76.4" cy="504.6" rx="32.4" ry="11.5"/>
	<ellipse class="st1" cx="576.4" cy="557.3" rx="32.4" ry="11.5"/>
	<path class="st2" d="M575.1,559c0,0,8.6-29.4-1.6-51c-4.4-9-5.7-19.3-3.8-29.1c1-4.7,2.3-9.2,4.1-13.7"/>
	<path class="st3" d="M567.5,451.5c0,3.6,6.5,14,6.5,14s6.5-10.4,6.5-14s-2.9-6.5-6.5-6.5S567.4,447.9,567.5,451.5L567.5,451.5z"/>
	<path class="st3" d="M556.7,471.5c2,3,13.1,8.2,13.1,8.2s-0.2-12.3-2.2-15.3s-6-3.9-9-1.9C555.6,464.4,554.7,468.5,556.7,471.5
		L556.7,471.5z"/>
	<path class="st4" d="M557.1,505.6c3.2,1.6,15.5,0.5,15.5,0.5s-6.4-10.5-9.6-12.1c-3.2-1.6-7.1-0.3-8.8,2.9S553.9,503.9,557.1,505.6
		L557.1,505.6z"/>
	<path class="st4" d="M563.3,531.3c2.9,2.2,15.2,3.1,15.2,3.1s-4.5-11.5-7.4-13.6s-7-1.5-9.1,1.4C559.8,525,560.4,529.1,563.3,531.3
		L563.3,531.3z"/>
	<path class="st4" d="M583.5,480.4c-2.6,2.5-14.6,5.1-14.6,5.1s2.9-11.9,5.5-14.5c2.6-2.5,6.7-2.4,9.2,0.1
		C586.1,473.8,586,477.9,583.5,480.4z"/>
	<path class="st4" d="M590.3,510.6c-3.2,1.6-15.5,0.5-15.5,0.5s6.4-10.5,9.6-12.1c3.2-1.6,7.1-0.3,8.8,2.9
		C594.8,505.1,593.5,509,590.3,510.6L590.3,510.6z"/>
	<path class="st4" d="M592.9,540.8c-2.9,2.2-15.2,3.1-15.2,3.1s4.5-11.5,7.4-13.6s7-1.5,9.1,1.4S595.8,538.6,592.9,540.8z"/>
	<path class="st5" d="M76.4,504.7c0,0,18.5-62.7-3.5-108.8c-9.2-19.4-12.2-41.1-8-62.1c2-10,5-19.7,8.8-29.2"/>
	<path class="st6" d="M60.1,275.4c0,7.7,13.9,30,13.9,30s13.9-22.3,13.9-30s-6.2-13.9-13.9-13.9S60.1,267.7,60.1,275.4L60.1,275.4
		L60.1,275.4z"/>
	<path class="st7" d="M37.1,318c4.2,6.5,28,17.6,28,17.6s-0.4-26.3-4.6-32.7c-4.3-6.4-13-8-19.3-3.7C35,303.4,33.2,311.6,37.1,318
		L37.1,318z"/>
	<path class="st7" d="M38.1,390.7c6.9,3.5,33,1.1,33,1.1s-13.7-22.5-20.5-25.9c-6.9-3.5-15.2-0.7-18.7,6.2
		C28.5,378.9,31.2,387.3,38.1,390.7L38.1,390.7L38.1,390.7z"/>
	<path class="st7" d="M51.2,445.6c6.2,4.6,32.4,6.6,32.4,6.6s-9.6-24.5-15.8-29c-6.2-4.6-14.9-3.3-19.5,2.9S45,441,51.2,445.6
		L51.2,445.6z"/>
	<path class="st6" d="M94.3,337c-5.5,5.4-31.2,10.9-31.2,10.9s6.3-25.5,11.8-30.9s14.3-5.2,19.7,0.3C99.9,322.8,99.8,331.7,94.3,337
		L94.3,337L94.3,337z"/>
	<path class="st8" d="M108.8,401.4c-6.9,3.5-33,1.1-33,1.1s13.7-22.5,20.5-25.9c6.9-3.5,15.2-0.7,18.7,6.2
		C118.4,389.6,115.7,398,108.8,401.4L108.8,401.4L108.8,401.4z"/>
	<path class="st8" d="M114.4,465.9c-6.2,4.6-32.4,6.6-32.4,6.6s9.6-24.5,15.8-29c6.2-4.6,14.9-3.3,19.5,2.9
		C121.9,452.6,120.6,461.3,114.4,465.9L114.4,465.9z"/>
	<path class="st8" d="M303.1,350.1l-40.1-5.2c-1.6-0.2-2.9-0.8-2.8-1.4l0,0c0.1-0.5,1.4-0.8,3.1-0.6l40,5.8c1.1,0.2,1.9,0.6,1.9,0.9
		l0,0C305.2,350.1,304.2,350.3,303.1,350.1z"/>
	<path class="st8" d="M303.4,350.8l-40.2-4.2c-1.6-0.2-3,0.1-3.1,0.7l0,0c-0.1,0.5,1.3,1.1,2.9,1.3l40.3,3.6c1.1,0.1,2-0.1,2-0.5
		l0,0C305.4,351.3,304.5,350.9,303.4,350.8z"/>
	<path class="st8" d="M363.7,381.1l40.1-5.2c1.6-0.2,2.9-0.8,2.8-1.4l0,0c-0.1-0.5-1.4-0.8-3.1-0.6l-40,5.8
		c-1.1,0.2-1.9,0.6-1.9,0.9l0,0C361.7,381,362.6,381.2,363.7,381.1z"/>
	<path class="st8" d="M363.5,381.7l40.2-4.2c1.6-0.2,3,0.1,3.1,0.7l0,0c0.1,0.5-1.3,1.1-2.9,1.3l-40.3,3.6c-1.1,0.1-2-0.1-2-0.5l0,0
		C361.5,382.2,362.4,381.9,363.5,381.7z"/>
	<rect x="221.4" y="424.1" class="st9" width="9.8" height="140.2"/>
	<rect x="434.8" y="424.1" class="st9" width="9.8" height="140.2"/>
	<path class="st10" d="M217.6,412.7h225.8c8.7,0,15.8,7.1,15.8,15.8v2.1l0,0H201.8l0,0v-2.1C201.8,419.8,208.9,412.7,217.6,412.7z"
		/>
	<path class="st1" d="M216.9,412.7h225.8c8.7,0,15.8,7.1,15.8,15.8v2.1l0,0H201.1l0,0v-2.1C201.1,419.8,208.2,412.7,216.9,412.7z"/>
	<path class="st10" d="M217.6,409.4h225.8c8.7,0,15.8,7.1,15.8,15.8v2.1l0,0H201.8l0,0v-2.1C201.8,416.5,208.9,409.4,217.6,409.4z"
		/>
	<circle class="st11" cx="330.5" cy="378.5" r="19.6"/>
	<circle class="st11" cx="330.5" cy="378.5" r="15.5"/>
	<circle class="st11" cx="330.5" cy="378.5" r="11.8"/>
	<circle class="st11" cx="330.5" cy="378.5" r="6.6"/>
	<circle class="st11" cx="319.1" cy="389.1" r="19.6"/>
	<circle class="st11" cx="319.1" cy="389.1" r="15.5"/>
	<circle class="st11" cx="319.1" cy="389.1" r="11.8"/>
	<circle class="st11" cx="319.1" cy="389.1" r="6.6"/>
	<circle class="st11" cx="342" cy="389.1" r="19.6"/>
	<circle class="st11" cx="342" cy="389.1" r="15.5"/>
	<circle class="st11" cx="342" cy="389.1" r="11.8"/>
	<circle class="st11" cx="342" cy="389.1" r="6.6"/>
	<path class="st8" d="M289.8,383.4h81.5l0,0v3.8c0,15.9-12.9,28.8-28.8,28.8h-23.9c-15.9,0-28.8-12.9-28.8-28.8L289.8,383.4
		L289.8,383.4z"/>
	<path class="st1" d="M363.9,383.4c-0.4,17.7-14.9,31.8-32.6,31.8h-16.2c2.4,0.5,4.8,0.8,7.2,0.8h16.3c18,0,32.6-14.6,32.6-32.6l0,0
		L363.9,383.4L363.9,383.4z"/>
	<rect x="227.9" y="530.8" class="st9" width="211.9" height="9.8"/>
	<rect x="139.9" y="496.7" class="st9" width="8.6" height="77.8"/>
	<rect x="207.4" y="496.7" class="st9" width="8.6" height="77.8"/>
	<path class="st12" d="M222.8,483.9c0,5.2-17.6,9.4-39.3,9.4s-38.5-4.2-38.5-9.4c0-5.2,16.8-9.4,38.5-9.4S222.8,478.7,222.8,483.9z"
		/>
	<path class="st9" d="M133.1,483.9h89.8l0,0v7.8c0,4.2-3.4,7.6-7.6,7.6l0,0H146c-7.2,0-12.9-5.8-12.9-12.9V483.9L133.1,483.9z"/>
	<path class="st9" d="M117.8,393.9l1.9-0.4c2.7-0.6,5.4,1.1,6,3.8l22.4,99.3l0,0l-2.8,0.6c-4.9,1.1-9.8-2-10.9-6.9L114,399.9
		C113.4,397.2,115.1,394.5,117.8,393.9L117.8,393.9z"/>
	<rect x="514.1" y="498.1" class="st9" width="8.6" height="77.8"/>
	<rect x="446.5" y="498.1" class="st9" width="8.6" height="77.8"/>
	<path class="st12" d="M439.7,485.3c0,5.2,17.6,9.4,39.3,9.4c21.7,0,38.5-4.2,38.5-9.4s-16.8-9.4-38.5-9.4
		C457.3,475.8,439.7,480.1,439.7,485.3z"/>
	<path class="st9" d="M516.5,500.7h-69.3c-4.2,0-7.6-3.4-7.6-7.6v-7.8l0,0h89.8l0,0v2.4C529.5,494.9,523.7,500.7,516.5,500.7z"/>
	<path class="st9" d="M517.2,498.6l-2.8-0.6l0,0l22.4-99.3c0.6-2.7,3.3-4.4,6-3.8l1.9,0.4c2.7,0.6,4.4,3.3,3.8,6l-20.4,90.5
		C527,496.7,522.1,499.7,517.2,498.6z"/>
	
		<linearGradient id="SVGID_1_" gradientUnits="userSpaceOnUse" x1="601.3851" y1="2576.7439" x2="601.3851" y2="2269.6099" gradientTransform="matrix(1 0 0 1 -148.11 -2001.71)">
		<stop  offset="0" style="stop-color:#808080;stop-opacity:0.25"/>
		<stop  offset="0.54" style="stop-color:#808080;stop-opacity:0.12"/>
		<stop  offset="1" style="stop-color:#808080;stop-opacity:0.1"/>
	</linearGradient>
	<path class="st13" d="M520.3,455l2.5-0.8c0,0-4.3-28.8-4.3-54.7c0-0.7,0-1.5,0-2.2c0.1-1.6,0.1-3.2,0.2-4.8c0.1-2,0.1-3.9,0.1-5.8
		c0.2-24.9-9.6-35.4-9.6-35.4s-11.5-16.4-18.4-19.6c-0.6-1.9-1.3-4.3-1.9-7.1c0.2-0.2,0.4-0.3,0.6-0.5c2.8-2.1,5.6-4.4,8.2-6.8
		c3.5-3.3,6.9-7.4,6.7-11.9c0-0.4,0-0.9,0-1.3c-0.7-5.5-6.4-9.6-8.7-14.9c-1.9-4.4-1.4-9.3-3.1-13.7c-1.7-4.4-7.6-8.6-12.1-6.2
		c-1.6,0.9-2.6,2.4-4,3.5c-3.4,2.9-8.9,3.1-13.6,1.8c-4.7-1.3-6-6.6-12.6-6.7c0.6,0.2,1.1,0.5,1.6,0.8c-0.5-0.1-1.1-0.1-1.6-0.1
		c2.7,0.9,4.7,3.2,5,6c0,0.2,0,0.3-0.1,0.5c-2.6,1.4-6,0.6-9.1,0.6c-3.1-0.1-6.7,1.5-6.4,4.1c-0.1,0.3-0.1,0.6,0,0.9
		c0.4,1.9,3,3.4,3.3,5.2c0,0.1,0,0.1,0,0.1c-5.8,2.9-12,4.7-18.4,5.4c-0.2,0-0.1,0.3,0.2,0.6h-0.2c-1.2,0.1,7,6.6,8,7
		c3.4,1.6,7.5,2.7,11.1,3.9l0.3,0.1c-1.2,2.8-1.9,5.9-1.8,9c0,11.1,8,20.4,18.7,23c2,2.4,4.1,4.9,6.1,7.5l0,0c0,0-12.4,16.5-12,41.1
		c0,3.1,0.1,6.2,0.5,9.2c-8-0.5-25.1-2.6-38.1-12.1c-17.6-12.9-37.2-9-33.1-1.3s25,14.1,28.4,14.8c0.3,0.1,1.1,0.2,2.1,0.5
		c-4.2,0.8-7,2.2-6.8,4c0.3,3.5,18.2,14.8,29.1,15.4c7.1,0.4,15.7,2.6,22.5,4.6c0.7,14.8-2.9,19.2-2.9,19.2s1.1,0.7,2.8,1.6
		l-0.8,2.2c-4.4,2.5-9.8,5.2-14.7,6.2c-6.3,1.3-12.4,3.3-18.2,6l-24.3,11.8c-4.4,2-7.5,6.2-8.1,11.1c-0.5,5,1,11.2,9.1,16.2
		c0.5,4,3,8.8,9.5,13.1c12.6,8.4,45.7,33.5,50.2,36.9c0.1,6.1-0.7,18.4-8.3,20.3c-9.5,2.4-1.8,11.5,5.8,11.1
		c1.8,0.7,3.8,0.8,5.7,0.4c8.1-1.9,37.8-12.2,39.9-27.6c0.1-0.7,0.1-1.3,0.1-2c0.1-2.6-0.5-5.2-1.9-7.5c0.3,0.7,0.6,1.4,0.8,2.2
		c-2.5-5.6-8.5-9.1-13.1-11.1c0-0.1,0-0.1,0-0.2c-0.7-0.3-1.4-0.5-2-0.7c0-0.4,0-0.8-0.1-1.2l-46.6-32.1c0,0,20.3-16.7,41.2-14.1
		c21,2.6,24.3-1.2,24.3-1.2s10.7-10.2,11.8-22l0.7-0.2C520.4,457.1,520.4,456.3,520.3,455z"/>
	<path class="st14" d="M463.3,538.7c0,0,1.9,21-7.6,23.5s-0.6,12.7,7,10.8s35.6-12.1,37.5-27.3s-19.1-20.3-19.1-20.3L463.3,538.7z"
		/>
	<path class="st15" d="M463.3,538.7c0,0,1.9,21-7.6,23.5s-0.6,12.7,7,10.8s35.6-12.1,37.5-27.3s-19.1-20.3-19.1-20.3L463.3,538.7z"
		/>
	<path class="st14" d="M467.2,539.3c0,0,1.9,21-7.6,23.5s-0.6,12.7,7,10.8s35.6-12.1,37.5-27.3S485,525.9,485,525.9L467.2,539.3z"/>
	<path class="st1" d="M486.9,526.6L469.1,540c0,0,0.1,0.9,0.1,2.4c6.7-1.8,21.4-6.7,21.6-14.4C489.5,527.4,488.2,526.9,486.9,526.6z
		"/>
	<rect x="468.1" y="343.8" class="st16" width="7.6" height="5.7"/>
	<path class="st17" d="M468.5,436.3c0,0-12.1,9.5-22.1,11.8c-5.9,1.3-11.7,3.3-17.1,6l-22.9,11.6c-4.2,2.1-7.1,6.3-7.6,11
		c-0.7,6.5,1.9,15,17.5,20.1l49,40.7l15.3-12.7l-52.1-40l40.1-24.8L468.5,436.3z"/>
	<path class="st1" d="M468.5,436.3c0,0-12.1,9.5-22.1,11.8c-5.9,1.3-11.7,3.3-17.1,6l-22.9,11.6c-4.2,2.1-7.1,6.3-7.6,11
		c-0.7,6.5,1.9,15,17.5,20.1l49,40.7l15.3-12.7l-52.1-40l40.1-24.8L468.5,436.3z"/>
	<path class="st16" d="M461.5,393.7c0,0-23.5,0.6-40.1-12.1c-16.5-12.7-35-8.9-31.2-1.3s23.5,14,26.7,14.6s49,13.4,49,13.4
		L461.5,393.7z"/>
	<path class="st15" d="M461.5,393.7c0,0-23.5,0.6-40.1-12.1c-16.5-12.7-35-8.9-31.2-1.3s23.5,14,26.7,14.6s49,13.4,49,13.4
		L461.5,393.7z"/>
	<path class="st17" d="M464,430.6l-7.6,22.9c0,0-42.9,26.4-46.4,29.9c-2.7,2.7-6.4,13.4,6.4,22.3c12.7,8.9,47.7,36.9,47.7,36.9
		s26.7-5.8,24.8-16.5L445,494.3c0,0,19.1-16.5,38.8-14c19.7,2.6,22.9-1.3,22.9-1.3s15.3-15.3,10.2-29.9
		C511.7,434.4,464,430.6,464,430.6z"/>
	<path class="st16" d="M454.5,327c0,0,21.6,23.5,20.3,30.5s17.2-20.3,17.2-20.3s-5.8-14-4.5-29.3L454.5,327z"/>
	<path class="st1" d="M473.3,348.5c1.5-1.6,3-3,4.7-4.4c3.3-2.7,6.2-5.6,8.9-8.9c4.5-5.8,21,19.1,21,19.1s10.2,11.4,8.9,38.8
		c-1.3,27.3,1.6,63.9,1.6,63.9l-3.8,1.1c-6.6,2.2-13.8,1.2-19.5-2.8c-5.1-3.5-11.5-7.2-16.4-7.5c-9.5-0.6-18.1-6-18.1-6
		s4.1-9.9-2.2-41.7c-6.4-31.8,9.8-54.4,9.8-54.4S469.4,352.6,473.3,348.5z"/>
	<path class="st18" d="M520.6,454.1l-3.8,1.3l-2.3,0.8c-6.6,2.2-13.8,1.2-19.5-2.8c-5.1-3.5-11.5-7.2-16.4-7.5
		c-9.5-0.6-20.3-7.6-20.3-7.6s6.4-8.3,0-40.1s9.9-54.4,9.9-54.4s1.3,6.9,5.2,2.8c1.5-1.6,3-3,4.6-4.4c3.3-2.7,6.2-5.6,8.9-8.9
		c4.5-5.8,21,19.1,21,19.1s10.2,11.4,8.9,38.8c-0.1,2.9-0.2,5.8-0.2,8.8C516.5,425.6,520.6,454.1,520.6,454.1z"/>
	<path class="st1" d="M484.3,391.8l0.6,14c0,0-33.7,1.9-40.7-5.1s19.1,20.6,24.8,22.3c5.4,1.6,19.3,3,26.7,3.1
		c4.3,0.1,8.2-2.3,10.1-6.1c0.9-1.9,1.1-3.9,0.8-5.9c-1.3-8.3,0-26.1,0-26.1L484.3,391.8z"/>
	<path class="st16" d="M484.3,390.5l0.6,14c0,0-33.7,1.9-40.7-5.1s-32.3-5.4-31.8,0c0.3,3.5,17.2,14.6,27.3,15.3
		c10.2,0.6,23.5,5.3,29.3,7c5.4,1.6,19.3,3,26.7,3.1c4.3,0.1,8.2-2.3,10.1-6.1c0.9-1.9,1.1-3.9,0.8-5.9c-1.3-8.3,0-26.1,0-26.1
		L484.3,390.5z"/>
	<path class="st1" d="M492,349.8c0,0-14.6,1.9-12.7,23.5s4.5,23.5,4.5,23.5s21.6-1.9,24.2-2.5c2.5-0.6,1.3-24.2,1.3-24.2
		S508.5,349.2,492,349.8z"/>
	<path class="st18" d="M492,349.2c0,0-14.6,1.9-12.7,23.5s4.5,23.5,4.5,23.5s21.6-1.9,24.2-2.5c2.5-0.6,1.3-24.2,1.3-24.2
		S508.5,348.5,492,349.2z"/>
	<path class="st1" d="M486.6,321.5c-1-5,1.1-6.6,1.6-13l-33.1,19.1c0,0,3.8,4.1,8.1,9.4c1.9,0.5,3.9,0.7,5.9,0.7
		C477.7,337.7,482.5,328.4,486.6,321.5z"/>
	<circle class="st16" cx="468.4" cy="313.6" r="23.5"/>
	<path class="st1" d="M474.4,306.4c-3.6,2.3-3.6,7.5-1.3,11c2.3,3.6,6.3,5.9,10.1,8.2c1.1,0.6,2.3,1.3,3.6,1.2
		c1-0.2,1.9-0.6,2.6-1.3c2.7-2.1,5.3-4.3,7.7-6.7c3.5-3.4,6.9-7.7,6.3-12.5c-0.6-5.4-6-9.5-8.2-14.7c-1.8-4.3-1.3-9.2-2.9-13.6
		s-7.2-8.5-11.4-6.2c-1.5,0.8-2.5,2.4-3.8,3.5c-3.2,2.8-8.4,3.1-12.8,1.8s-5.7-6.6-11.8-6.6c3,1.1,5.1,4.2,4.6,7.1
		c-2.5,1.4-5.7,0.6-8.6,0.5c-3-0.1-6.5,1.6-6,4.3c0.4,2.2,3.6,3.8,3.1,5.9c-5.4,2.8-11.3,4.7-17.4,5.3c-1.1,0.1,6.6,6.5,7.5,7
		c3.2,1.5,7.1,2.7,10.5,3.8C455.6,307.8,465,308.9,474.4,306.4z"/>
	<path class="st19" d="M474.4,305.8c-3.6,2.3-3.6,7.5-1.3,11c2.3,3.6,6.3,5.9,10.1,8.2c1.1,0.6,2.3,1.3,3.6,1.2
		c1-0.2,1.9-0.6,2.6-1.3c2.7-2.1,5.3-4.3,7.7-6.7c3.5-3.4,6.9-7.7,6.3-12.5c-0.6-5.4-6-9.5-8.2-14.7c-1.8-4.3-1.3-9.2-2.9-13.6
		s-7.2-8.5-11.4-6.2c-1.5,0.8-2.5,2.4-3.8,3.5c-3.2,2.8-8.4,3.1-12.8,1.8c-4.4-1.3-5.7-6.6-11.8-6.6c3,1.1,5.1,4.2,4.6,7.1
		c-2.5,1.4-5.7,0.6-8.6,0.5c-3-0.1-6.5,1.6-6,4.3c0.4,2.2,3.6,3.8,3.1,5.9c-5.4,2.8-11.3,4.7-17.4,5.3c-1.1,0.1,6.6,6.5,7.5,7
		c3.2,1.5,7.1,2.7,10.5,3.8C455.6,307.1,465,308.3,474.4,305.8z"/>
	<path class="st20" d="M502.4,536.9c1,2.4,1.4,4.9,1,7.5c-1.9,15.3-29.9,25.4-37.5,27.3c-4,1-8.4-1.3-10.2-4.2
		c1.2,3.3,6.3,6.6,10.9,5.4c7.6-1.9,35.6-12.1,37.5-27.3C504.5,542.6,503.9,539.6,502.4,536.9z"/>
	
		<linearGradient id="SVGID_2_" gradientUnits="userSpaceOnUse" x1="346.36" y1="2565.7236" x2="346.36" y2="2273.51" gradientTransform="matrix(1 0 0 1 -148.11 -2001.71)">
		<stop  offset="0" style="stop-color:#808080;stop-opacity:0.25"/>
		<stop  offset="0.54" style="stop-color:#808080;stop-opacity:0.12"/>
		<stop  offset="1" style="stop-color:#808080;stop-opacity:0.1"/>
	</linearGradient>
	<path class="st21" d="M300.3,554.2L300.3,554.2c-0.6-1.3-3.5-3.8-17.7-4.3c-9.7-0.4-13.1-5.5-14-10.5c3.2-0.4,5.7-1,6.5-1.8
		c0,0,0-0.2-0.1-0.6l0.1-0.1c-0.6-3.6-0.9-7.3-1-11c0-3.1,0.3-6.3,1-9.4c0.4-2,0.6-4.1,0.5-6.2c0.1-12.2-4.2-33.7-4.2-33.7
		l-0.6-17.9c-0.1-4.5-2.7-8.6-6.8-10.7c-1.4-0.7-3-1.1-4.6-1.1c0,0-22.5-3.6-42.8-5.5c-1.4-1.2-6.5-4.3-18.1-2.5l-6.7-19.6
		c-0.1-0.2-0.1-0.5-0.1-0.7c0.2-2.5,1.9-6.2,9.6-6.5l1.6,1.4c0,0,0.3-0.6,0.8-1.4c9.6-0.1,62-0.6,64.7,0c3,0.7,29-5.1,29.7-5.8
		c10.1-9.9-29.7-5.1-29.7-5.1c-3.9,0.6-16.6-0.1-29.6-1.2c6.4-9.6,12.5-42.3,12.5-42.3s23-11.6,16.4-18.1S241,354.2,241,354.2
		s-8.2,23.9-11.9,31.2c-1.4,2.9-3.3,3.5-5,3.1c0.8-0.6,1.2-1,1.2-1s-16.4-13.1-17.8-18.1c-0.3-0.8-0.6-1.6-1.1-2.4
		c-0.8-4.6-2.2-9.1-5.5-12.1c-0.6-0.6-1.2-1.2-1.9-1.6c-0.9-0.6-1.9-1.2-2.8-1.9l0,0c0.5-2.2,1-4.5,1.6-6.7
		c12.1-1.4,21.6-11.5,21.6-23.7c0-1.8-0.2-3.7-0.7-5.5c3.7,0.2,7.2-1.5,9.4-4.5c2.5-3.7,2.4-8.6,0.3-12.5c-0.9-1.6-2-3-3.3-4.2
		c-2.1-2.1-4.7-3.7-7.6-4.7c-2.5-0.9-5.2-1.4-7.1-3c-0.9-1.1-1.7-2.3-2.4-3.6c-0.8-1.2-1.8-2.4-2.9-3.4c-3.6-3.7-8.7-6-13.8-7
		c-6.3-1.2-12.8-0.8-19.2-0.4c-2.4,0.2-5.2,0.6-6.3,2.7c-0.8,1.6-0.3,3.4-0.4,5.2c-0.3,5.6-6.7,8.6-12.2,10s-12.1,2.5-14.8,7.4
		c-2.4,4.4-0.7,9.7,0.1,14.7c1.3,8.7-0.6,17.5-5.4,24.9c-2.4,3.7-5.6,7-7.5,11c-2.1,4.4-2.6,9.5-1.4,14.3c0.4,1.4,0.9,2.8,0.6,4.2
		c-0.3,1.2-0.9,2.3-1.7,3.2c-6.7,8.3-16.5,13.3-27.1,14c0.4,1.5,1.3,2.8,2.5,3.7c1.5,1.5,3.2,2.7,5.1,3.5c5,2.5,10.3,4.5,15.8,5.9
		c3.7,0.9,7.5,1.6,11.2,1s7.4-2.8,8.9-6.1c0.9-2,1-4.2,1.8-6.2c1.6-4,5.5-6.6,8.1-10c-0.9,8.8-1.3,17.6-1.3,26.5c0,2.8,0,5.3,0,7.6
		c0,10-0.7,16.9-6.9,29.4c-0.7,1.3-1.1,2.8-0.9,4.3c-0.3,1.6,0.3,3.3,1.6,4.4c-0.4,2.5-0.6,5-0.6,7.5c-0.1,9.1,3,21.3,19.3,24.4
		l29-1.4c0,0,40.9-8,52-2.2c1.9,0.4,3.3,2.1,3.3,4c0,0.6-0.1,1.2-0.3,1.8c-0.3,1.9-0.4,3.8-0.4,5.7c-0.1,12.2,2.6,40,2.6,40v11.8
		c-1.9,2.8-4.1,6.9-3.8,10c0,0.1,0,0.1,0,0.2c0,0.1,0,0.2,0,0.3s0,0.2,0.1,0.2c0.1,0.1,0,0.2,0.1,0.2s0.1,0.2,0.1,0.3
		s0.1,0.1,0.1,0.2c0,0.1,0.1,0.2,0.1,0.3l0.1,0.2c0.1,0.1,0.2,0.3,0.3,0.4c3.7,4.3,22.3,12.7,28.3,12.3c6.3-0.4,27.5,0.7,28.3-8.7
		C300.5,554.8,300.5,554.5,300.3,554.2z"/>
	<path class="st22" d="M247.5,536c0,0-8.6,10.8-5,15.1s21.6,12.6,27.3,12.2c6.1-0.4,26.6,0.7,27.3-8.6c0,0,1.4-4.3-17.3-5
		c-18.7-0.7-12.9-20.1-12.9-20.1L247.5,536z"/>
	<path class="st1" d="M144.6,445.4c0,0-8.6,29.5,17.3,34.5l28.1-1.4c0,0,39.6-7.9,50.3-2.2c0,0,4.3,0.7,2.9,6.5s2.2,44.6,2.2,44.6
		v12.9c0,0,24.5,0,27.3-2.9c0,0-2.2-11.5,0-20.9c2.2-9.4-3.6-38.8-3.6-38.8l-0.6-17.8c-0.1-4.5-2.6-8.5-6.5-10.6
		c-1.4-0.7-2.9-1.1-4.4-1.1c0,0-48.9-7.9-66.2-6.5S144.6,445.4,144.6,445.4z"/>
	<path class="st23" d="M144.6,444.7c0,0-8.6,29.5,17.3,34.5l28.1-1.4c0,0,39.6-7.9,50.3-2.2c0,0,4.3,0.7,2.9,6.5s2.2,44.6,2.2,44.6
		v12.9c0,0,24.5,0,27.3-2.9c0,0-2.2-11.5,0-20.9c2.2-9.4-3.6-38.8-3.6-38.8l-0.6-17.8c-0.1-4.5-2.6-8.5-6.5-10.6
		c-1.4-0.7-2.9-1.1-4.4-1.1c0,0-48.9-7.9-66.2-6.5S144.6,444.7,144.6,444.7z"/>
	<path class="st16" d="M218.7,386.4c0,0,5.8,7.2,9.4,0c3.6-7.2,11.5-30.9,11.5-30.9s19.4-20.9,25.9-14.4s-15.8,18-15.8,18
		s-7.9,43.9-15.1,44.6c-7.2,0.7-18,0-18,0l-3.6-7.9L218.7,386.4z"/>
	<path class="st15" d="M218.7,386.4c0,0,5.8,7.2,9.4,0c3.6-7.2,11.5-30.9,11.5-30.9s19.4-20.9,25.9-14.4s-15.8,18-15.8,18
		s-7.9,43.9-15.1,44.6c-7.2,0.7-18,0-18,0l-3.6-7.9L218.7,386.4z"/>
	<path class="st24" d="M192.8,350.5c0,0,12.9,15.1,14.4,20.1s17.3,18,17.3,18s-11.5,8.6-9.4,12.9S200,387.1,200,387.1l-20.1-29.5
		L192.8,350.5z"/>
	<path class="st1" d="M192.8,350.5c0,0,12.9,15.1,14.4,20.1s17.3,18,17.3,18s-11.5,8.6-9.4,12.9S200,387.1,200,387.1l-20.1-29.5
		L192.8,350.5z"/>
	<path class="st16" d="M201.4,333.2c0,0-6.5,20.9-6.5,28.8s-27.3-2.2-26.6-6.5s15.8-20.1,16.5-26.6S201.4,333.2,201.4,333.2z"/>
	<path class="st1" d="M179.9,347.6c0,0-25.2-6.5-28.8,30.2s2.9,41-7.9,63.3c-10.8,22.3,73.4,2.9,73.4,2.9s-4.3-5-18-2.9l-6.5-19.4
		c0,0-2.2-8.6,10.1-8.6c12.2,0,6.5-25.2,6.5-25.2s-6.5-21.6-10.1-23.7C195,362,188.5,349,179.9,347.6z"/>
	<path class="st24" d="M179.9,346.1c0,0-25.2-6.5-28.8,30.2s2.9,41-7.9,63.3c-10.8,22.3,73.4,2.9,73.4,2.9s-4.3-5-18-2.9l-6.5-19.4
		c0,0-2.2-8.6,10.1-8.6c12.2,0,6.5-25.2,6.5-25.2s-6.5-21.6-10.1-23.7C195,360.5,188.5,347.6,179.9,346.1z"/>
	<path class="st16" d="M205,397.9c0,0,52.5,5.8,61.1,4.3c0,0,38.6-4.7,28.8,5c-0.7,0.7-25.9,6.5-28.8,5.8s-64,0-64,0l-0.7-7.2
		L205,397.9z"/>
	<path class="st1" d="M164.8,379.9l38.1,34.5c0,0,7.2-14.4,9.4-14.4s-25.9-42.4-25.9-42.4s-7.2-8.6-11.5-4.3
		C170.5,357.7,157.6,354.8,164.8,379.9z"/>
	<path class="st24" d="M164,378.5l38.1,34.5c0,0,7.2-14.4,9.4-14.4s-25.9-42.4-25.9-42.4s-7.2-8.6-11.5-4.3
		C169.8,356.2,156.8,353.3,164,378.5z"/>
	<circle class="st16" cx="195" cy="322.4" r="23.7"/>
	<path class="st1" d="M215.8,316.4c4,1.6,9-0.3,11.3-3.9s2.3-8.5,0.3-12.4s-5.7-6.6-9.8-8.1c-2.5-0.9-5.2-1.4-7.1-3.2
		c-1.2-1.1-1.9-2.7-2.8-4.1c-3.4-5.2-9.4-8.3-15.4-9.5c-6.1-1.2-12.4-0.8-18.6-0.4c-2.3,0.2-5,0.6-6.1,2.7c-0.8,1.6-0.3,3.4-0.4,5.1
		c-0.3,5.5-6.5,8.6-11.8,9.9c-5.4,1.3-11.6,2.6-14.2,7.4c-2.3,4.4-0.7,9.7,0.1,14.6c1.2,8.6-0.6,17.3-5.2,24.6
		c-2.4,3.7-5.4,7-7.2,10.9c-2.1,4.4-2.5,9.4-1.4,14.2c0.4,1.4,0.8,2.8,0.6,4.2c-0.3,1.2-0.8,2.2-1.6,3.1c-6.4,8.2-15.9,13.2-26.2,14
		c0.8,3.1,3.8,5,6.6,6.5c4.8,2.5,10,4.4,15.2,5.8c3.5,0.9,7.3,1.6,10.9,0.9c3.6-0.6,7.1-2.7,8.6-6.1c0.9-1.9,1-4.1,1.8-6.1
		c1.7-4.5,6.3-7.1,8.8-11.2c2.4-3.9,3.3-4.4,3.9-8.9c0.6-4.5,1.9-9.4,5.6-12c3.9-2.8,9.4-2.3,13.7-0.1c4.3,2.1,7,1.3,10.6,4.4
		c6.3,5.5,13.4,10,21,13.5c-0.7-6.3-1.9-13.3-7-17c-1.4-1.1-3.3-1.9-4-3.5c-1.2-2.6,0.9-5.8-0.1-8.5s-4.5-3.7-6.1-6.2
		c-1.4-2.1-1-5,0.3-7.1s3.3-3.8,5.3-5.3c1.8-1.3,3.6-2.6,5.4-3.9c1.6-1,3.1-2.3,4.4-3.8c0.7-1,1.2-3.1,2.2-3.8
		C209.6,311.3,213.4,315.5,215.8,316.4z"/>
	<path class="st19" d="M215,315.7c4,1.6,9-0.3,11.3-3.9c2.4-3.6,2.3-8.5,0.3-12.4s-5.7-6.6-9.8-8.1c-2.5-0.9-5.2-1.4-7.1-3.2
		c-1.2-1.1-1.9-2.7-2.8-4.1c-3.4-5.2-9.4-8.3-15.4-9.5c-6.1-1.2-12.4-0.8-18.6-0.4c-2.3,0.2-5,0.6-6.1,2.7c-0.8,1.6-0.3,3.4-0.4,5.1
		c-0.3,5.5-6.5,8.6-11.8,9.9c-5.4,1.3-11.6,2.6-14.2,7.4c-2.3,4.4-0.7,9.7,0.1,14.6c1.2,8.6-0.6,17.3-5.2,24.6
		c-2.4,3.7-5.4,7-7.2,10.9c-2.1,4.4-2.5,9.4-1.4,14.2c0.4,1.4,0.8,2.8,0.6,4.2c-0.3,1.2-0.8,2.2-1.6,3.1c-6.4,8.2-15.9,13.2-26.2,14
		c0.8,3.1,3.8,5,6.6,6.5c4.8,2.5,10,4.4,15.2,5.8c3.5,0.9,7.3,1.6,10.9,0.9c3.6-0.6,7.1-2.7,8.6-6.1c0.9-1.9,1-4.1,1.8-6.1
		c1.7-4.5,6.3-7.1,8.8-11.2c2.4-3.9,3.3-4.4,3.9-8.9c0.6-4.5,1.9-9.4,5.6-12c3.9-2.8,9.4-2.3,13.7-0.1c4.3,2.1,7,1.3,10.6,4.4
		c6.3,5.5,13.4,10,21,13.5c-0.7-6.3-1.9-13.3-7-17c-1.4-1.1-3.3-1.9-4-3.5c-1.2-2.6,0.9-5.8-0.1-8.5s-4.5-3.7-6.1-6.2
		c-1.4-2.1-1-5,0.3-7.1s3.3-3.8,5.3-5.3c1.8-1.3,3.6-2.6,5.4-3.9c1.6-1,3.1-2.3,4.4-3.8c0.7-1,1.2-3.1,2.2-3.8
		C208.8,310.6,212.7,314.8,215,315.7z"/>
	<g class="st25">
		<path class="st26" d="M266.1,535.2c0.1-1.9,0.3-3.8,0.8-5.7l-0.4,0.1C266.2,531.5,266,533.4,266.1,535.2z"/>
		<path class="st26" d="M269.8,561.9c-5.8,0.3-23.7-7.9-27.3-12.2c-0.5-0.6-0.8-1.3-0.8-2c-0.2,1.2,0.1,2.5,0.8,3.5
			c3.6,4.3,21.6,12.6,27.3,12.2c6.1-0.4,26.6,0.7,27.3-8.6c0.1-0.3,0-0.5-0.1-0.8C295.4,562.6,275.7,561.6,269.8,561.9z"/>
	</g>
	<rect x="298.2" y="347.2" class="st27" width="0.7" height="29.5"/>
	<rect x="298.9" y="347.2" class="st27" width="0.7" height="29.5"/>
	<rect x="299.6" y="347.2" class="st27" width="0.7" height="29.5"/>
	<rect x="300.3" y="347.2" class="st27" width="0.7" height="29.5"/>
	<rect x="301.1" y="347.2" class="st27" width="0.7" height="29.5"/>
	<rect x="301.8" y="347.2" class="st27" width="0.7" height="29.5"/>
	<rect x="302.5" y="347.2" class="st27" width="0.7" height="29.5"/>
</g>
<g id="Layer_2_1_">
</g>
</svg>
