<?xml version="1.0" encoding="utf-8"?>
<!-- Generator: Adobe Illustrator 25.2.1, SVG Export Plug-In . SVG Version: 6.00 Build 0)  -->
<svg version="1.1" id="a525f49c-389c-445f-ad2c-d5c197cff10c"
	 xmlns="http://www.w3.org/2000/svg" xmlns:xlink="http://www.w3.org/1999/xlink" x="0px" y="0px" viewBox="0 0 648 648"
	 style="enable-background:new 0 0 648 648;" xml:space="preserve">
<style type="text/css">
	.st0{fill:#F2F2F2;}
	.st1{fill:#3F3D56;}
	.st2{opacity:0.2;enable-background:new    ;}
	.st3{fill:#F9E754;}
	.st4{fill:#E6E6E6;}
	.st5{fill:#E0E0E0;}
	.st6{opacity:0.3;fill:#F9D46B;enable-background:new    ;}
</style>
<path class="st0" d="M234.5,456.3l-82.8,136.6l0.2,13.9c-6.1,0-12.1-0.1-18-0.3l4.1-178.4l-0.1-1.4l0.2-0.3l0.4-16.9l-91-131.8
	L138.3,397l0.3,3.6l3.1-134.8L63.2,129l78.7,113l-0.5-182.3h2l38.3-2.3l-38.3,2.3l2.9,123.1l71.5-89.4l-71.3,108.4l1.6,120.6
	L214,204.7l-65.6,135.4l0.9,67.1l95.7-164l-95.4,187.3l1.9,149.1L234.5,456.3z"/>
<polygon class="st0" points="612.6,415.7 586.4,467.1 520.8,596 505.7,596 506,582 426.9,467.1 415.2,450.1 428.1,467.1 
	505.9,569.4 506.2,573 508.7,467.1 509.3,438.1 430.9,301.4 509.6,414.5 508.7,135.2 508.7,134.2 508.8,135.1 514,355.3 
	585.5,265.9 514.2,374.2 515.4,467.1 515.8,494.8 531.3,467.1 581.6,377.1 538,467.1 516,512.6 516.9,579.6 582.6,467.1 "/>
<path class="st1" d="M572.3,594.2c0,11.9-110.3,47.7-246.3,47.7S79.6,606.1,79.6,594.2c0-11.9,110.3,4.5,246.3,4.5
	S572.3,582.2,572.3,594.2z"/>
<path class="st2" d="M572.3,594.2c0,11.9-110.3,47.7-246.3,47.7S79.6,606.1,79.6,594.2c0-11.9,110.3,4.5,246.3,4.5
	S572.3,582.2,572.3,594.2z"/>
<ellipse class="st1" cx="326" cy="594.2" rx="246.3" ry="21.6"/>
<ellipse class="st2" cx="324.1" cy="596.3" rx="101.4" ry="9.5"/>
<path class="st1" d="M521.5,378.6H410.8v0.7H145.9v38.4c0,98.6,80,178.6,178.6,178.6l0,0c63.5,0,122.3-33.7,154.3-88.6h42.7
	c35.6,0,64.5-28.9,64.6-64.5S557.2,378.7,521.5,378.6L521.5,378.6z M521.5,487.8h-32.7c9.5-22.2,14.3-46,14.3-70.1v-19.2h18.4
	c24.7,0,44.7,20,44.7,44.6C566.2,467.8,546.2,487.8,521.5,487.8L521.5,487.8z"/>
<path class="st3" d="M162.5,395.9v21.8c0,89.3,72.7,162,162,162s162-72.7,162-162v-21.8L162.5,395.9L162.5,395.9z"/>
<path class="st4" d="M282.2,550.1l-37.1-38.2c-7.8-8-7.6-20.9,0.4-28.7l0,0l56.1-54.4c1.3-1.3,2.9-2.3,4.6-3l12.2-4.9
	c5.4-2.1,11.5-0.8,15.5,3.3l38.7,39.9c3.9,4,5.1,10,3,15.2l-4.1,10.4c-0.7,1.9-1.9,3.6-3.3,5l-57.5,55.8
	C302.8,558.3,290,558.1,282.2,550.1z"/>
<rect x="345.1" y="436.7" transform="matrix(0.7177 -0.6964 0.6964 0.7177 -215.1294 368.6485)" class="st1" width="3.9" height="25.9"/>
<path class="st1" d="M348.7,450.6c3.3-7.8,13.1-9.5,20.3-11c7.7-1.6,16.5-4.5,19.7-12.5c1.4-3.3,1-7.2-1-10.2
	c-1.9-2.7-5.1-4.9-8.5-4.6c-7.2,0.6-8.5,9.1-5.7,14.5c3.7,7.2,13.2,7.9,20.4,8c6.9,0.2,14.3-0.1,20.6-3.2c6.1-2.9,9.8-9.2,9.5-16
	c-0.2-7-3.3-13.4-5.1-20c-1.8-6.3-2.3-13.4,2.4-18.7c4.5-5.1,11.7-7.1,18.2-8.2c1.7-0.3,3.4-0.4,5.1-0.6c1.8-0.1,1.8-3,0-2.8
	c-12.1,1-28,5.1-29.7,19.4c-0.8,6.5,1.7,13,3.7,19.1c1.9,5.7,4,12.2,1.6,18c-2.5,6.1-8.9,8.6-15,9.6c-3.3,0.5-6.6,0.6-9.9,0.5
	c-3.8,0.1-7.7-0.3-11.4-1.1c-3.2-0.9-6.3-2.6-7.8-5.6c-1.1-2.3-1.5-5.3-0.2-7.6c1.3-2.4,4.3-3.2,6.7-1.9c0.1,0,0.2,0.1,0.2,0.1
	c2.8,1.6,4.4,4.6,4.1,7.8c-1,8.1-10.2,11.3-17,12.8c-7.4,1.7-15.8,2.9-21.1,8.9c-1.1,1.3-2,2.8-2.7,4.4c-0.2,0.8,0.2,1.5,1,1.7
	C347.7,451.8,348.5,451.3,348.7,450.6L348.7,450.6z"/>
<circle class="st4" cx="234.1" cy="428.6" r="10.4"/>
<circle class="st4" cx="425.5" cy="467.5" r="10.4"/>
<circle class="st4" cx="373.3" cy="522.4" r="7.6"/>
<path class="st4" d="M103.1,590.9c31,6.9,65.1,1.8,65.1,1.8s-16-16.3-47-23.2s-65.1-1.8-65.1-1.8S72.2,584,103.1,590.9z"/>
<path class="st3" d="M106.2,602.5c33.7,1,62.3-9.9,62.3-9.9c-18.9-8.2-39.2-12.7-59.7-13.4c-33.7-1-62.3,9.9-62.3,9.9
	C65.3,597.3,85.6,601.8,106.2,602.5z"/>
<path class="st3" d="M108.6,579.2c24.1,12.1,59.5,13.7,59.5,13.7s-3.6-18.2-27.7-30.3s-59.5-13.7-59.5-13.7S84.5,567.1,108.6,579.2z
	"/>
<g>
	<polygon class="st5" points="648,84.2 648,27.2 53.7,27.2 0,27.2 0,84.2 0,298.3 0,355.3 0,591.2 53.7,591.2 53.7,355.3 648,355.3 
		648,298.3 53.7,298.3 53.7,84.2 	"/>
	<rect x="586.1" y="31.7" class="st5" width="61.9" height="558.5"/>
</g>
<path class="st6" d="M162.1,396.4v21.8c0,89.3,72.7,162,162,162s162-72.7,162-162v-21.8L162.1,396.4L162.1,396.4z"/>
<path class="st0" d="M79.9,436.8c-5.5,8.5-11.6,8.8-16.8,5.5c-0.1-0.1-0.2-0.2-0.4-0.2c-0.2-0.2-0.5-0.3-0.7-0.5
	c-4.4-3.4-6-8.9-0.9-16.8c5.3-8.2,20.7-13,21.8-13.3l0,0H83C83.1,411.4,85.5,428.3,79.9,436.8z"/>
<path class="st0" d="M461.8,217.8c-5.5,8.5-11.6,8.8-16.8,5.5c-0.1-0.1-0.2-0.2-0.4-0.2c-0.2-0.2-0.5-0.3-0.7-0.5
	c-4.4-3.4-6-8.9-0.9-16.8c5.3-8.2,20.7-13,21.8-13.3l0,0h0.1C464.9,192.3,467.3,209.2,461.8,217.8z"/>
<path class="st0" d="M243.9,154.4c6.9,7.5,5.6,13.5,1.1,17.6c-0.1,0.1-0.2,0.2-0.3,0.3c-0.2,0.2-0.4,0.4-0.7,0.5
	c-4.4,3.4-10.1,3.6-16.5-3.3c-6.6-7.2-7.4-23.3-7.4-24.5l0,0v-0.1C220,145,237,146.9,243.9,154.4z"/>
<path class="st4" d="M469.4,394.9l-16.3,8.2c-3.2,1.8-7.3,0.6-9.1-2.6l-11.2-22.3c-0.3-0.5-0.4-1.1-0.5-1.7l-0.2-4.2
	c-0.1-1.9,1-3.7,2.8-4.6l17-8.6c1.7-0.9,3.7-0.7,5.2,0.4l2.9,2.2c0.5,0.4,0.9,0.9,1.2,1.5l11.5,22.8
	C474.2,389.3,472.8,393.3,469.4,394.9z"/>
<rect x="440" y="365.2" transform="matrix(0.8928 -0.4504 0.4504 0.8928 -117.1222 239.3891)" class="st1" width="8.9" height="1.2"/>
<rect x="439" y="371.4" transform="matrix(0.8949 -0.4463 0.4463 0.8949 -119.8459 239.6602)" class="st3" width="19.7" height="5.7"/>
<rect x="442.8" y="378" transform="matrix(0.8949 -0.4463 0.4463 0.8949 -122.3912 242.051)" class="st3" width="19.7" height="5.7"/>
<rect x="446.6" y="385.6" transform="matrix(0.8949 -0.4463 0.4463 0.8949 -125.3846 244.5457)" class="st3" width="19.7" height="5.7"/>
</svg>
