<?xml version="1.0" encoding="utf-8"?>
<!-- Generator: Adobe Illustrator 25.2.1, SVG Export Plug-In . SVG Version: 6.00 Build 0)  -->
<svg version="1.1" id="bc812f07-65cf-4d9b-b76c-8815e86162f5"
	 xmlns="http://www.w3.org/2000/svg" xmlns:xlink="http://www.w3.org/1999/xlink" x="0px" y="0px" viewBox="0 0 648 648"
	 style="enable-background:new 0 0 648 648;" xml:space="preserve">
<style type="text/css">
	.st0{fill:#E6E6E6;}
	.st1{fill:#FFFFFF;}
	.st2{fill:#FF6584;}
	.st3{fill:#3F3D56;}
	.st4{fill:#F9E754;}
	.st5{opacity:0.2;enable-background:new    ;}
	.st6{fill:#CCCCCC;}
	.st7{fill:#F2F2F2;}
</style>
<path class="st0" d="M429,261.2c-1.3,0-2.3,1-2.3,2.2v153.2c0,1.2,1,2.2,2.3,2.2h216.7c1.3,0,2.3-1,2.3-2.2V263.4
	c0-1.2-1-2.2-2.3-2.2H429z"/>
<path class="st1" d="M633.8,274.9v108.9c0,1.5-1.2,2.7-2.8,2.7H443.3c-0.1,0-0.3,0-0.4,0c-1.4-0.2-2.4-1.3-2.4-2.7V274.9
	c0-1.5,1.2-2.7,2.8-2.7H631C632.5,272.2,633.8,273.4,633.8,274.9z"/>
<ellipse class="st2" cx="594.9" cy="312.1" rx="10.1" ry="9.9"/>
<ellipse class="st3" cx="433.3" cy="266.7" rx="3.3" ry="3.3"/>
<ellipse class="st3" cx="641.1" cy="266.7" rx="3.3" ry="3.3"/>
<ellipse class="st3" cx="433.3" cy="413.3" rx="3.3" ry="3.3"/>
<ellipse class="st3" cx="641.1" cy="413.3" rx="3.3" ry="3.3"/>
<ellipse class="st4" cx="502.4" cy="339.1" rx="12.1" ry="11.9"/>
<polygon class="st3" points="503.6,375 501.1,375 502.2,337.3 "/>
<polygon class="st3" points="502.4,344.5 505.1,340.8 502.4,345.4 502.1,344.9 "/>
<polygon class="st3" points="502.1,348.1 499.5,344.5 502.2,349 502.5,348.5 "/>
<ellipse class="st4" cx="613.3" cy="339.1" rx="12.1" ry="11.9"/>
<polygon class="st3" points="614.5,375 612,375 613.1,337.3 "/>
<polygon class="st3" points="613.4,344.5 616,340.8 613.3,345.4 613,344.9 "/>
<polygon class="st3" points="613.1,348.1 610.4,344.5 613.1,349 613.4,348.5 "/>
<ellipse class="st4" cx="537.4" cy="328.7" rx="17.9" ry="17.6"/>
<polygon class="st3" points="539.1,381.7 535.5,381.7 537.2,326.1 "/>
<polygon class="st3" points="537.5,336.6 541.4,331.3 537.4,337.9 537,337.2 "/>
<polygon class="st3" points="537,342 533.1,336.7 537.1,343.3 537.5,342.6 "/>
<ellipse class="st4" cx="581" cy="322" rx="17.9" ry="17.6"/>
<polygon class="st3" points="582.7,375 579,375 580.7,319.4 "/>
<polygon class="st3" points="581,329.9 585,324.5 581,331.2 580.6,330.5 "/>
<polygon class="st3" points="580.6,335.3 576.7,330 580.7,336.6 581.1,335.9 "/>
<ellipse class="st4" cx="468" cy="322" rx="17.9" ry="17.6"/>
<polygon class="st3" points="469.7,375 466.1,375 467.7,319.4 "/>
<polygon class="st3" points="468.1,329.9 472,324.5 468,331.2 467.6,330.5 "/>
<polygon class="st3" points="467.6,335.3 463.7,330 467.7,336.6 468.1,335.9 "/>
<path class="st3" d="M538.4,386.5h-95.1c-0.1,0-0.3,0-0.4,0c-1.4-0.2-2.4-1.3-2.4-2.7v-23.4c8.9-1.5,18-2.2,27.1-2.2
	c33.7,0,62,9.5,69.1,22.3C537.8,382.3,538.4,384.4,538.4,386.5z"/>
<path class="st3" d="M633.8,378.5v5.3c0,1.5-1.2,2.7-2.8,2.7H525.8c3.4-2.4,7-4.4,10.9-6c12.9-5.4,31.1-8.8,51.2-8.8
	C605.4,371.7,621.4,374.2,633.8,378.5z"/>
<path class="st0" d="M549.6,0c-0.4,0-0.7,0.1-1.1,0.3L357.2,100.5c-1.1,0.6-1.5,1.9-0.9,3l73,135.2c0.6,1.1,2,1.5,3.1,0.9
	l191.3-100.2c1.1-0.6,1.5-1.9,0.9-3l-73-135.2c-0.3-0.5-0.8-0.9-1.3-1.1C550.1,0,549.8,0,549.6,0z"/>
<path class="st1" d="M544.5,17.9l51.9,96.1c0.7,1.3,0.2,3-1.1,3.7c0,0,0,0,0,0l-165.7,86.8c-0.1,0.1-0.2,0.1-0.4,0.2
	c-1.3,0.5-2.7-0.1-3.4-1.3l-51.9-96.1c-0.7-1.3-0.2-3,1.1-3.7c0,0,0,0,0,0l165.7-86.8C542.1,16,543.8,16.6,544.5,17.9
	C544.5,17.9,544.5,17.9,544.5,17.9z"/>
<ellipse class="st2" cx="433.8" cy="118.9" rx="24.4" ry="24"/>
<path class="st3" d="M536.7,148.9L431,204.3c-0.1,0.1-0.3,0.1-0.4,0.2l3.9-111.5c0.1-2.2,1.9-3.9,4.1-3.8c0.7,0,1.4,0.2,2,0.6
	l64.5,39.7l3.1,1.9L536.7,148.9z"/>
<polygon class="st5" points="536.7,148.9 500.6,167.8 504.6,133.1 504.9,130.7 505.1,129.4 508.2,131.3 "/>
<path class="st3" d="M595.6,118l-91.5,47.9l4-34.6l0.3-2.5l5.2-45.1c0.3-3,3.9-5,6.7-4c0.2,0.1,0.4,0.1,0.6,0.2L595.6,118z"/>
<ellipse class="st3" cx="363.6" cy="103.4" rx="3.3" ry="3.3"/>
<ellipse class="st3" cx="547.1" cy="7.3" rx="3.3" ry="3.3"/>
<ellipse class="st3" cx="433.5" cy="232.8" rx="3.3" ry="3.3"/>
<ellipse class="st3" cx="617" cy="136.7" rx="3.3" ry="3.3"/>
<path class="st0" d="M595.9,647.7c1.2,0.3,2.4-0.4,2.8-1.6l40-148c0.3-1.2-0.4-2.4-1.6-2.7l-209.4-54.9c-1.2-0.3-2.4,0.4-2.8,1.6
	l-40,148c-0.3,1.2,0.4,2.4,1.6,2.7c0,0,0,0,0,0L595.9,647.7z"/>
<path class="st1" d="M621.9,505.6l-28.4,105.2c-0.4,1.5-1.9,2.3-3.4,1.9l-181.3-47.5c-0.1,0-0.3-0.1-0.4-0.1c-1.3-0.5-2-1.9-1.6-3.2
	l28.4-105.2c0.4-1.5,1.9-2.3,3.4-1.9L620,502.3C621.5,502.6,622.3,504.1,621.9,505.6z"/>
<path class="st3" d="M597.6,595.9l-4,14.9c-0.4,1.5-1.9,2.3-3.4,1.9l-181.3-47.5c-0.1,0-0.3-0.1-0.4-0.1c-1.3-0.5-2-1.9-1.6-3.2
	l4-14.9L597.6,595.9z"/>
<polygon class="st6" points="488.6,576.9 517.4,584.4 516.6,587.7 487.7,580.1 "/>
<polygon class="st6" points="422.2,559.5 451.1,567 450.2,570.3 421.4,562.7 "/>
<polygon class="st6" points="554.9,594.3 583.8,601.8 582.9,605.1 554.1,597.5 "/>
<ellipse class="st3" cx="430.3" cy="446.9" rx="3.3" ry="3.3"/>
<ellipse class="st3" cx="631.1" cy="499.5" rx="3.3" ry="3.3"/>
<ellipse class="st3" cx="392" cy="588.6" rx="3.3" ry="3.3"/>
<ellipse class="st3" cx="592.9" cy="641.2" rx="3.3" ry="3.3"/>
<polygon class="st3" points="569,593.2 553,589 553.6,586.5 569.7,590.7 "/>
<path class="st4" d="M437.6,556.7l3.1,1.6l125.7,33l1.8-2.3c3.2-3.9,5.2-8.7,5.8-13.6c0.4-3.7,0-7.6-2.6-10l4.3-38.1L506.1,509
	l-32.7,14.3c0,0-12.6-3.6-21.8,3.1c-3.3,2.5-5.8,5.9-7.2,9.8l-1.5,4.3L437.6,556.7z"/>
<ellipse class="st3" cx="465.3" cy="563.3" rx="16.1" ry="15.8"/>
<ellipse class="st6" cx="465.3" cy="563.3" rx="8.5" ry="8.3"/>
<ellipse class="st3" cx="541.9" cy="583.5" rx="16.1" ry="15.8"/>
<ellipse class="st6" cx="541.9" cy="583.5" rx="8.5" ry="8.3"/>
<polygon class="st1" points="484.8,523.6 522.4,533.5 527,534.7 534.7,536.7 534.8,536.2 536.7,529.5 538.7,521.9 533.5,520.6 
	529,519.4 520.8,517.3 516.3,516.1 506.9,513.6 "/>
<polygon class="st1" points="540.8,538.3 560.6,543.5 561.7,539.7 563.5,533 564.6,528.8 561.7,528 557.2,526.8 544.8,523.5 "/>
<polygon class="st3" points="530.4,552.5 527.9,551.9 529.2,547.1 531.7,547.8 "/>
<polygon class="st3" points="493.8,530.6 493.2,533.1 488.3,531.8 489,529.3 "/>
<path class="st3" d="M491.8,531.2l-0.3-0.1c-2.9-0.8-4.7-3.7-3.9-6.6l0,0c0.8-2.9,3.8-4.6,6.7-3.8l0.3,0.1l0,0L491.8,531.2
	L491.8,531.2z"/>
<path class="st3" d="M443,540.6c4.4,1.7,9.3-0.5,11-4.8c1.3-3.3,0.3-7-2.4-9.4c-3.3,2.5-5.8,5.9-7.2,9.8L443,540.6z"/>
<polygon class="st7" points="529,519.4 534.8,536.2 536.7,529.5 533.5,520.6 "/>
<polygon class="st7" points="557.2,526.8 561.7,539.7 563.5,533 561.7,528 "/>
<polygon class="st7" points="516.3,516.1 522.4,533.5 527,534.7 520.8,517.3 "/>
<ellipse class="st4" cx="36.9" cy="250.6" rx="10.2" ry="10.1"/>
<path class="st5" d="M41.2,241.4c4.2,3.7,4.5,10.1,0.7,14.2c-3,3.3-7.8,4.2-11.9,2.4c4.2,3.7,10.6,3.5,14.4-0.7
	c3.8-4.1,3.5-10.5-0.7-14.2C43,242.4,42.2,241.9,41.2,241.4z"/>
<ellipse class="st3" cx="300" cy="261.5" rx="25.2" ry="10.1"/>
<path class="st5" d="M300,251.4c-0.9,0-1.7,0-2.6,0.1c12.7,0.5,22.6,4.8,22.6,10c0,5.2-9.9,9.5-22.6,10c0.8,0,1.7,0.1,2.6,0.1
	c13.9,0,25.2-4.5,25.2-10.1C325.2,255.9,313.9,251.4,300,251.4z"/>
<path class="st3" d="M332.9,261.5H206.6V248c0-1.4-1.1-2.5-2.6-2.5h-69.9c-1.4,0-2.6,1.1-2.6,2.5v13.4H58.2v-8.4
	c0-1.4-1.1-2.5-2.6-2.5H18.2c-1.4,0-2.6,1.1-2.6,2.5v8.4H5.4c-1.4,0-2.6,1.1-2.6,2.5c0,0,0,0,0,0v165.5c0,1.4,1.1,2.5,2.6,2.5
	c0,0,0,0,0,0h327.5c1.4,0,2.6-1.1,2.6-2.5c0,0,0,0,0,0V264C335.4,262.6,334.3,261.5,332.9,261.5
	C332.9,261.5,332.9,261.5,332.9,261.5z"/>
<path class="st5" d="M332.9,419.7H5.3c-1.4,0-2.6-1.1-2.6-2.5c0,0,0,0,0,0v11.8c0,1.4,1.1,2.5,2.6,2.5c0,0,0,0,0,0h327.5
	c1.4,0,2.6-1.1,2.6-2.5c0,0,0,0,0,0v-11.8C335.4,418.5,334.3,419.7,332.9,419.7C332.9,419.7,332.9,419.7,332.9,419.7z"/>
<rect x="2.8" y="338.8" class="st5" width="332.6" height="31.9"/>
<rect x="2.8" y="322.8" class="st5" width="332.6" height="31.9"/>
<rect x="2.8" y="330.4" class="st4" width="332.6" height="31.9"/>
<ellipse class="st4" cx="169.1" cy="346.3" rx="64.8" ry="63.8"/>
<path class="st5" d="M219,305.6c18.1,30.4,7.8,69.5-23.1,87.4c-27.4,15.8-62.5,9.8-82.7-14.3c18.1,30.4,57.8,40.6,88.7,22.7
	c30.9-17.8,41.2-57,23.1-87.4C223.3,311.1,221.3,308.3,219,305.6z"/>
<ellipse class="st3" cx="169.1" cy="346.3" rx="48.2" ry="47.5"/>
<path class="st1" d="M206.6,346.3c0,5-1,10-3,14.6c-1.1,2.5-2.4,4.8-4.1,7c-12.1,16.6-35.6,20.3-52.4,8.4
	c-16.8-11.9-20.6-35-8.5-51.6c2.4-3.2,5.2-6,8.5-8.4c2.2-1.6,4.6-2.9,7.1-4c19-8.1,41.1,0.6,49.3,19.4
	C205.6,336.3,206.6,341.3,206.6,346.3L206.6,346.3z"/>
<path class="st5" d="M206.2,340.9c-1.4-9.4-6.4-17.9-14-23.7c6.7,10.3,7.8,23.2,2.9,34.5c-1.1,2.5-2.4,4.8-4.1,7
	c-12.1,16.5-35.6,20.3-52.4,8.4c-0.4-0.3-0.8-0.6-1.2-0.9c11.1,17.2,34.3,22.3,51.8,11.3c4-2.5,7.5-5.8,10.3-9.6
	c1.6-2.2,3-4.5,4.1-7C206.3,354.6,207.3,347.7,206.2,340.9L206.2,340.9z"/>
</svg>
